HIERARCHY
ROOT hip
{
  OFFSET 0 0 0
  CHANNELS 6 Xposition Yposition Zposition Zrotation Yrotation Xrotation
  JOINT abdomen
  {
    OFFSET 0 20.6881 -0.73152
    CHANNELS 3 Zrotation Xrotation Yrotation
    JOINT chest
    {
      OFFSET 0 11.7043 -0.48768
      CHANNELS 3 Zrotation Xrotation Yrotation
      JOINT neck
      {
        OFFSET 0 22.1894 -2.19456
        CHANNELS 3 Zrotation Xrotation Yrotation
        JOINT head
        {
          OFFSET -0.24384 7.07133 1.2192
          CHANNELS 3 Zrotation Xrotation Yrotation
          JOINT leftEye
          {
            OFFSET 4.14528 8.04674 8.04672
            CHANNELS 3 Zrotation Xrotation Yrotation
            End Site
            {
              OFFSET 1 0 0
            }
          }
          JOINT rightEye
          {
            OFFSET -3.6576 8.04674 8.04672
            CHANNELS 3 Zrotation Xrotation Yrotation
            End Site
            {
              OFFSET 1 0 0
            }
          }
        }
      }
      JOINT rCollar
      {
        OFFSET -2.68224 19.2634 -4.8768
        CHANNELS 3 Zrotation Xrotation Yrotation
        JOINT rShldr
        {
          OFFSET -8.77824 -1.95073 1.46304
          CHANNELS 3 Zrotation Xrotation Yrotation
          JOINT rForeArm
          {
            OFFSET -28.1742 -1.7115 0.48768
            CHANNELS 3 Zrotation Xrotation Yrotation
            JOINT rHand
            {
              OFFSET -22.5879 0.773209 7.07136
              CHANNELS 3 Zrotation Xrotation Yrotation
              JOINT rThumb1
              {
                OFFSET -1.2192 -0.487915 3.41376
                CHANNELS 3 Zrotation Xrotation Yrotation
                JOINT rThumb2
                {
                  OFFSET -3.37035 -0.52449 3.41376
                  CHANNELS 3 Zrotation Xrotation Yrotation
                  End Site
                  {
                    OFFSET -1.78271 -1.18214 1.43049
                  }
                }
              }
              JOINT rIndex1
              {
                OFFSET -7.75947 0.938293 5.60832
                CHANNELS 3 Zrotation Xrotation Yrotation
                JOINT rIndex2
                {
                  OFFSET -2.54057 -0.884171 1.56538
                  CHANNELS 3 Zrotation Xrotation Yrotation
                  End Site
                  {
                    OFFSET -1.62519 -0.234802 1.16502
                  }
                }
              }
              JOINT rMid1
              {
                OFFSET -8.24714 1.18213 3.41376
                CHANNELS 3 Zrotation Xrotation Yrotation
                JOINT rMid2
                {
                  OFFSET -3.10165 -0.590103 1.0647
                  CHANNELS 3 Zrotation Xrotation Yrotation
                  End Site
                  {
                    OFFSET -2.48547 -0.328903 0.83742
                  }
                }
              }
              JOINT rRing1
              {
                OFFSET -8.82822 0.546677 1.51678
                CHANNELS 3 Zrotation Xrotation Yrotation
                JOINT rRing2
                {
                  OFFSET -2.60934 -0.819778 -0.0198488
                  CHANNELS 3 Zrotation Xrotation Yrotation
                  End Site
                  {
                    OFFSET -2.33842 -0.294052 0.168128
                  }
                }
              }
              JOINT rPinky1
              {
                OFFSET -8.27202 -0.0477905 -0.4584
                CHANNELS 3 Zrotation Xrotation Yrotation
                JOINT rPinky2
                {
                  OFFSET -1.82734 -0.647385 -0.700984
                  CHANNELS 3 Zrotation Xrotation Yrotation
                  End Site
                  {
                    OFFSET -1.69225 -0.51767 -0.607171
                  }
                }
              }
            }
          }
        }
      }
      JOINT lCollar
      {
        OFFSET 2.68224 19.2634 -4.8768
        CHANNELS 3 Zrotation Xrotation Yrotation
        JOINT lShldr
        {
          OFFSET 8.77824 -1.95073 1.46304
          CHANNELS 3 Zrotation Xrotation Yrotation
          JOINT lForeArm
          {
            OFFSET 28.1742 -1.7115 0.48768
            CHANNELS 3 Zrotation Xrotation Yrotation
            JOINT lHand
            {
              OFFSET 22.5879 0.773209 7.07136
              CHANNELS 3 Zrotation Xrotation Yrotation
              JOINT lThumb1
              {
                OFFSET 1.2192 -0.487915 3.41376
                CHANNELS 3 Zrotation Xrotation Yrotation
                JOINT lThumb2
                {
                  OFFSET 3.37035 -0.52449 3.41376
                  CHANNELS 3 Zrotation Xrotation Yrotation
                  End Site
                  {
                    OFFSET 1.78271 -1.18214 1.43049
                  }
                }
              }
              JOINT lIndex1
              {
                OFFSET 7.75947 0.938293 5.60832
                CHANNELS 3 Zrotation Xrotation Yrotation
                JOINT lIndex2
                {
                  OFFSET 2.54057 -0.884171 1.56538
                  CHANNELS 3 Zrotation Xrotation Yrotation
                  End Site
                  {
                    OFFSET 1.62519 -0.234802 1.16502
                  }
                }
              }
              JOINT lMid1
              {
                OFFSET 8.24714 1.18213 3.41376
                CHANNELS 3 Zrotation Xrotation Yrotation
                JOINT lMid2
                {
                  OFFSET 3.10165 -0.590103 1.0647
                  CHANNELS 3 Zrotation Xrotation Yrotation
                  End Site
                  {
                    OFFSET 2.48547 -0.328903 0.83742
                  }
                }
              }
              JOINT lRing1
              {
                OFFSET 8.82822 0.546677 1.51678
                CHANNELS 3 Zrotation Xrotation Yrotation
                JOINT lRing2
                {
                  OFFSET 2.60934 -0.819778 -0.0198488
                  CHANNELS 3 Zrotation Xrotation Yrotation
                  End Site
                  {
                    OFFSET 2.33842 -0.294052 0.168128
                  }
                }
              }
              JOINT lPinky1
              {
                OFFSET 8.27202 -0.0477905 -0.4584
                CHANNELS 3 Zrotation Xrotation Yrotation
                JOINT lPinky2
                {
                  OFFSET 1.82734 -0.647385 -0.700984
                  CHANNELS 3 Zrotation Xrotation Yrotation
                  End Site
                  {
                    OFFSET 1.69225 -0.51767 -0.607171
                  }
                }
              }
            }
          }
        }
      }
    }
  }
  JOINT rButtock
  {
    OFFSET -8.77824 4.35084 1.2192
    CHANNELS 3 Zrotation Xrotation Yrotation
    JOINT rThigh
    {
      OFFSET 0 -1.70687 -2.19456
      CHANNELS 3 Zrotation Xrotation Yrotation
      JOINT rShin
      {
        OFFSET 0 -36.8199 0.73152
        CHANNELS 3 Zrotation Xrotation Yrotation
        JOINT rFoot
        {
          OFFSET 0.73152 -45.1104 -5.12064
          CHANNELS 3 Zrotation Xrotation Yrotation
          End Site
          {
            OFFSET -1.1221 -3.69964 12.103
          }
        }
      }
    }
  }
  JOINT lButtock
  {
    OFFSET 8.77824 4.35084 1.2192
    CHANNELS 3 Zrotation Xrotation Yrotation
    JOINT lThigh
    {
      OFFSET 0 -1.70687 -2.19456
      CHANNELS 3 Zrotation Xrotation Yrotation
      JOINT lShin
      {
        OFFSET 0 -36.8199 0.73152
        CHANNELS 3 Zrotation Xrotation Yrotation
        JOINT lFoot
        {
          OFFSET -0.73152 -45.1104 -5.12064
          CHANNELS 3 Zrotation Xrotation Yrotation
          End Site
          {
            OFFSET 1.1221 -3.69964 12.103
          }
        }
      }
    }
  }
}
MOTION
Frames:	8
Frame Time:	0.00833333
33.4529 85.0966 -61.4889 0.0 0.0 0.0 0.283893 -0.0029139 0.00816071 0.0784589 -0.00473297 0.0135944 -5.50803e-15 1.59028e-15 -8.38623e-17 -1.64463e-14 9.54166e-15 -2.34504e-16 -0.0 0.0 0.0 -0.0 0.0 0.0 -2.73468e-15 4.65902e-18 0.0 -5.61078e-14 2.98177e-16 0.0 -9.8632e-13 2.98177e-13 -2.8625e-14 -1.12934e-11 -2.84038e-13 -1.52667e-13 -2.66422e-11 2.3374e-14 -3.84847e-13 -4.60198e-11 3.49861e-14 -6.91771e-13 -2.66379e-11 2.38542e-14 -3.94389e-13 7.73091 5.47488 0.417314 -2.66421e-11 2.34566e-14 -3.91208e-13 2.90554 0.965183 0.102902 -2.66326e-11 2.32578e-14 -3.9916e-13 10.2786 0.731801 0.0259123 -2.66447e-11 2.54444e-14 -4.0393e-13 2.22167 -0.733487 -0.20892 -2.83147e-15 4.07664e-18 -9.93923e-17 -5.96207e-14 2.11209e-16 -1.98785e-15 -9.87761e-13 -2.94996e-13 1.59028e-14 -1.12972e-11 3.03569e-13 -2.03556e-13 -2.66473e-11 1.51949e-14 -4.10292e-13 -4.60143e-11 2.8625e-14 -6.90975e-13 -2.66523e-11 1.70955e-14 -3.97569e-13 -7.73091 5.47488 -0.417314 -2.6648e-11 1.5207e-14 -4.10292e-13 -2.90554 0.965183 -0.102902 -2.66575e-11 1.54058e-14 -3.99955e-13 -10.2786 0.731801 -0.0259123 -2.66437e-11 1.63003e-14 -4.0075e-13 -2.22167 -0.733487 0.20892 -2.03217e-16 0.0 -3.88251e-19 0.668923 -3.85853 -0.0572483 -0.00341791 1.43794 -0.0274406 -0.455266 2.42105 0.100331 2.03217e-16 0.0 3.88251e-19 -0.234815 -2.72419 0.0299385 0.0066264 -0.61666 0.0579722 0.449429 3.34127 -0.11794
33.0721 84.1576 -61.7946 -1.7551 0.7867 2.5911 1.15424 0.0697858 1.37667 -0.368496 -1.36707 0.405726 -0.211869 -2.15891 -0.0165352 -0.0886188 2.15262 0.0696215 -0.0 0.0 0.0 -0.0 0.0 0.0 -1.24413e-14 -3.51409e-14 -9.32696e-15 22.1025 1.40934 -0.389199 -3.10596 -1.24463 5.01714 0.164205 9.03668 1.21428 -6.25804e-11 -1.79293e-10 3.11984e-10 -9.97465e-11 -3.16065e-10 5.39202e-10 -6.25771e-11 -1.79292e-10 3.11978e-10 7.73091 5.47488 0.417314 -6.25816e-11 -1.79291e-10 3.11978e-10 2.90554 0.965183 0.102902 -6.25709e-11 -1.79292e-10 3.11972e-10 10.2786 0.731801 0.0259123 -6.2582e-11 -1.79291e-10 3.11969e-10 2.22167 -0.733487 -0.20892 -1.25163e-14 -3.51418e-14 -9.48071e-15 -21.0636 12.8002 0.0911837 4.75512 -2.27884 -7.29453 -0.153956 -8.7388 1.17751 3.02577e-11 2.39995e-11 -1.93538e-10 5.58441e-11 4.63522e-11 -3.33022e-10 3.02543e-11 2.40017e-11 -1.93528e-10 -7.73091 5.47488 -0.417314 3.02568e-11 2.39993e-11 -1.93538e-10 -2.90554 0.965183 -0.102902 3.02479e-11 2.39995e-11 -1.9353e-10 -10.2786 0.731801 -0.0259123 3.0259e-11 2.39998e-11 -1.93531e-10 -2.22167 -0.733487 0.20892 -2.03217e-16 0.0 -3.88251e-19 1.3204 -3.89223 0.322337 0.00336527 3.3619 0.0290762 -0.703971 -0.434942 -6.48375 2.03217e-16 0.0 3.88251e-19 0.931085 -5.62671 -4.84608 -0.00417178 5.09857 -0.0797991 1.09757 0.0752019 6.4309
33.092 84.1552 -61.7952 -1.6463 0.7673 2.5909 2.06504 0.145523 2.82329 -0.818237 -2.80628 0.821129 -0.431798 -4.44409 -0.0321592 -0.199008 4.44113 0.145929 -0.0 0.0 0.0 -0.0 0.0 0.0 -2.41644e-14 -7.37715e-14 -1.99934e-14 45.4916 2.84557 -0.810316 -6.15525 -2.52966 10.3316 -0.101036 18.6586 2.6145 -9.53121e-11 -3.8723e-10 6.63124e-10 -1.46963e-10 -6.82238e-10 1.14592e-09 -9.53098e-11 -3.8723e-10 6.63121e-10 7.73091 5.47488 0.417314 -9.53146e-11 -3.87227e-10 6.63119e-10 2.90554 0.965183 0.102902 -9.53027e-11 -3.8723e-10 6.63114e-10 10.2786 0.731801 0.0259123 -9.53125e-11 -3.87229e-10 6.63114e-10 2.22167 -0.733487 -0.20892 -2.42164e-14 -7.37727e-14 -2.02046e-14 -43.384 26.3639 0.212206 9.16731 -4.57303 -15.0594 0.0930457 -18.0273 2.52594 1.06271e-10 6.13982e-11 -4.0676e-10 1.91057e-10 1.16283e-10 -6.9964e-10 1.06269e-10 6.14006e-11 -4.06755e-10 -7.73091 5.47488 -0.417314 1.0627e-10 6.13977e-11 -4.0676e-10 -2.90554 0.965183 -0.102902 1.06262e-10 6.13978e-11 -4.06756e-10 -10.2786 0.731801 -0.0259123 1.0627e-10 6.13976e-11 -4.06758e-10 -2.22167 -0.733487 0.20892 -2.03217e-16 0.0 -3.88251e-19 2.01156 -3.93497 0.725836 0.00637483 5.41203 0.0894357 -1.68012 -3.37543 -13.4677 2.03217e-16 0.0 3.88251e-19 1.61824 -8.60077 -10.0649 0.0148098 11.1379 -0.228765 2.58517 -3.27361 13.3775
33.0888 84.1558 -61.799 -1.6561 0.7444 2.609 2.88452 0.214691 4.11371 -1.20634 -4.09097 1.19268 -0.639366 -6.47672 -0.0498887 -0.281636 6.45781 0.21005 -0.0 0.0 0.0 -0.0 0.0 0.0 -3.18547e-14 -1.05432e-13 -2.79809e-14 66.3651 4.22723 -1.17043 -8.67121 -3.61953 15.0786 -0.775551 27.0582 4.04048 -1.34457e-10 -5.37924e-10 9.36722e-10 -2.072e-10 -9.48264e-10 1.61899e-09 -1.34455e-10 -5.37924e-10 9.36722e-10 7.73091 5.47488 0.417314 -1.34461e-10 -5.3792e-10 9.36718e-10 2.90554 0.965183 0.102902 -1.34448e-10 -5.37924e-10 9.36714e-10 10.2786 0.731801 0.0259123 -1.34456e-10 -5.37923e-10 9.36715e-10 2.22167 -0.733487 -0.20892 -3.18859e-14 -1.05434e-13 -2.82433e-14 -63.3417 38.4 0.34038 12.5626 -6.39424 -22.0102 0.719477 -26.1695 3.89089 1.44068e-10 7.19682e-11 -5.79792e-10 2.59561e-10 1.38999e-10 -9.97684e-10 1.44067e-10 7.19708e-11 -5.7979e-10 -7.73091 5.47488 -0.417314 1.44066e-10 7.19675e-11 -5.79792e-10 -2.90554 0.965183 -0.102902 1.44059e-10 7.19676e-11 -5.79791e-10 -10.2786 0.731801 -0.0259123 1.44064e-10 7.19669e-11 -5.79793e-10 -2.22167 -0.733487 0.20892 -2.03217e-16 0.0 -3.88251e-19 2.62471 -3.9591 1.0816 0.0054679 7.20981 0.143074 -3.13865 -5.79557 -19.7563 2.03217e-16 0.0 3.88251e-19 1.77503 -11.1197 -14.8121 0.0593738 16.5287 -0.369664 4.59906 -6.08274 19.6433
33.079 84.1578 -61.8004 -1.6971 0.7249 2.6163 3.48281 0.267893 5.01364 -1.47995 -4.99013 1.45206 -0.814063 -7.87799 -0.072686 -0.282697 7.79494 0.242455 -0.0 0.0 0.0 -0.0 0.0 0.0 -2.94627e-14 -1.19668e-13 -2.9271e-14 80.91 5.47324 -1.37568 -10.3085 -4.33092 18.3812 -1.49332 32.4545 5.1278 -1.89634e-10 -5.4551e-10 1.01646e-09 -2.99988e-10 -9.63921e-10 1.75792e-09 -1.89634e-10 -5.45509e-10 1.01646e-09 7.73091 5.47488 0.417314 -1.89639e-10 -5.45505e-10 1.01646e-09 2.90554 0.965183 0.102902 -1.89625e-10 -5.45509e-10 1.01646e-09 10.2786 0.731801 0.0259123 -1.89634e-10 -5.45509e-10 1.01646e-09 2.22167 -0.733487 -0.20892 -2.94789e-14 -1.19669e-13 -2.95692e-14 -77.2541 46.6178 0.410384 14.6163 -7.46274 -26.8026 1.39347 -31.4928 4.93924 8.63224e-11 1.54666e-11 -6.52348e-10 1.61293e-10 4.36786e-11 -1.12429e-09 8.63226e-11 1.54694e-11 -6.52348e-10 -7.73091 5.47488 -0.417314 8.63212e-11 1.54658e-11 -6.52348e-10 -2.90554 0.965183 -0.102902 8.63137e-11 1.54659e-11 -6.52348e-10 -10.2786 0.731801 -0.0259123 8.63179e-11 1.5465e-11 -6.52351e-10 -2.22167 -0.733487 0.20892 -2.03217e-16 0.0 -3.88251e-19 3.0414 -3.93706 1.31793 0.00314723 8.37677 0.178994 -4.43563 -7.278 -24.1828 2.03217e-16 0.0 3.88251e-19 1.65195 -12.7827 -18.1948 0.107287 20.2989 -0.476299 6.3964 -7.92858 24.0666
33.062 84.1587 -61.8058 -1.7827 0.7226 2.6408 3.78683 0.302078 5.36868 -1.61728 -5.35294 1.55262 -0.948429 -8.39178 -0.104708 -0.140982 8.16426 0.226249 -0.0 0.0 0.0 -0.0 0.0 0.0 -7.58713e-15 -1.04645e-13 -1.9637e-14 86.582 6.45831 -1.36425 -10.9065 -4.58572 19.6383 -1.74132 33.752 5.42954 -2.87998e-10 -2.82663e-10 7.46781e-10 -4.75655e-10 -5.07225e-10 1.29486e-09 -2.87999e-10 -2.82662e-10 7.46778e-10 7.73091 5.47488 0.417314 -2.88002e-10 -2.82661e-10 7.4678e-10 2.90554 0.965183 0.102902 -2.8799e-10 -2.82665e-10 7.46777e-10 10.2786 0.731801 0.0259123 -2.87999e-10 -2.82665e-10 7.46781e-10 2.22167 -0.733487 -0.20892 -7.59865e-15 -1.04645e-13 -1.99526e-14 -82.5922 49.4312 0.308111 15.2692 -7.7579 -28.4751 1.62589 -32.792 5.23108 -1.61284e-10 -1.72414e-10 -5.51481e-10 -2.6781e-10 -2.82052e-10 -9.55559e-10 -1.61284e-10 -1.72411e-10 -5.51481e-10 -7.73091 5.47488 -0.417314 -1.61285e-10 -1.72414e-10 -5.51481e-10 -2.90554 0.965183 -0.102902 -1.61292e-10 -1.72414e-10 -5.51482e-10 -10.2786 0.731801 -0.0259123 -1.61288e-10 -1.72415e-10 -5.51485e-10 -2.22167 -0.733487 0.20892 -2.03217e-16 0.0 -3.88251e-19 3.1797 -3.83684 1.38617 0.00272952 8.631 0.188845 -4.91453 -7.69169 -25.9158 2.03217e-16 0.0 3.88251e-19 1.60503 -13.4385 -19.5572 0.13045 21.8041 -0.524467 7.24577 -8.73485 25.8027
33.0452 84.1597 -61.812 -1.8972 0.7803 2.6694 3.88093 0.322642 5.33442 -1.66109 -5.33266 1.53921 -1.05297 -8.27183 -0.143095 0.101919 7.84306 0.175386 -0.0 0.0 0.0 -0.0 0.0 0.0 2.79496e-14 -6.89538e-14 -2.2736e-15 85.9077 7.26058 -1.19702 -10.8053 -4.53573 19.4305 -1.54419 32.1283 5.09453 -4.16222e-10 1.70012e-10 2.31226e-10 -7.08745e-10 2.81065e-10 4.08211e-10 -4.16224e-10 1.70014e-10 2.31216e-10 7.73091 5.47488 0.417314 -4.16226e-10 1.70009e-10 2.31226e-10 2.90554 0.965183 0.102902 -4.16214e-10 1.70006e-10 2.31223e-10 10.2786 0.731801 0.0259123 -4.16224e-10 1.70008e-10 2.31228e-10 2.22167 -0.733487 -0.20892 2.79356e-14 -6.89538e-14 -2.59352e-15 -81.8007 48.3867 0.0758617 15.0181 -7.57692 -27.9059 1.44046 -31.231 4.91427 -5.41834e-10 -4.52351e-10 -3.283e-10 -9.28587e-10 -7.69258e-10 -5.78498e-10 -5.41836e-10 -4.52348e-10 -3.28298e-10 -7.73091 5.47488 -0.417314 -5.41834e-10 -4.52351e-10 -3.283e-10 -2.90554 0.965183 -0.102902 -5.41841e-10 -4.52351e-10 -3.28302e-10 -10.2786 0.731801 -0.0259123 -5.41836e-10 -4.52351e-10 -3.28306e-10 -2.22167 -0.733487 0.20892 -2.03217e-16 0.0 -3.88251e-19 3.11959 -3.68144 1.33443 0.00431341 8.23468 0.179985 -4.68925 -7.41819 -25.7042 2.03217e-16 0.0 3.88251e-19 1.71843 -13.4291 -19.4477 0.128237 21.6915 -0.527268 7.26562 -8.88722 25.5889
33.0446 84.1651 -61.8105 -1.942 0.8332 2.6655 3.87173 0.33295 5.14152 -1.65731 -5.15451 1.4802 -1.13427 -7.90409 -0.180285 0.346763 7.27199 0.116225 -0.0 0.0 0.0 -0.0 0.0 0.0 6.03612e-14 -3.27784e-14 1.57048e-14 82.6779 8.10427 -0.963756 -10.4286 -4.36662 18.6472 -1.20526 29.2279 4.5197 -5.23204e-10 5.86491e-10 -2.57838e-10 -9.05111e-10 1.00705e-09 -4.33176e-10 -5.23207e-10 5.86494e-10 -2.57854e-10 7.73091 5.47488 0.417314 -5.23207e-10 5.86484e-10 -2.57836e-10 2.90554 0.965183 0.102902 -5.23198e-10 5.86483e-10 -2.57839e-10 10.2786 0.731801 0.0259123 -5.23209e-10 5.86485e-10 -2.57833e-10 2.22167 -0.733487 -0.20892 6.03454e-14 -3.27774e-14 1.53914e-14 -78.6136 45.8933 -0.158324 14.415 -7.21446 -26.4891 1.15115 -28.7059 4.42045 -8.85798e-10 -7.09146e-10 -1.08603e-10 -1.52627e-09 -1.2168e-09 -2.06646e-10 -8.85801e-10 -7.09143e-10 -1.08599e-10 -7.73091 5.47488 -0.417314 -8.85797e-10 -7.09146e-10 -1.08603e-10 -2.90554 0.965183 -0.102902 -8.85803e-10 -7.09146e-10 -1.08604e-10 -10.2786 0.731801 -0.0259123 -8.85798e-10 -7.09145e-10 -1.08609e-10 -2.22167 -0.733487 0.20892 -2.03217e-16 0.0 -3.88251e-19 2.98527 -3.52593 1.23608 0.00614155 7.62549 0.164774 -4.2166 -6.90215 -24.7178 2.03217e-16 0.0 3.88251e-19 1.882 -13.1481 -18.7509 0.115499 20.9255 -0.51085 6.93189 -8.75392 24.5971
